<?xml version="1.0" encoding="iso-8859-1"?>
<!-- Generator: Adobe Illustrator 19.0.0, SVG Export Plug-In . SVG Version: 6.00 Build 0)  -->
<svg version="1.1" id="Layer_1" xmlns="http://www.w3.org/2000/svg" xmlns:xlink="http://www.w3.org/1999/xlink" x="0px" y="0px" viewBox="0 0 511.983 511.983" style="enable-background:new 0 0 511.983 511.983;" xml:space="preserve">
	<g>
		<g>
			<path fill="currentColor" d="M490.658,234.65H379.384c2.261-10.944,3.627-22.549,3.627-34.901c0-68.715-58.389-135.211-60.864-138.005
			c-2.731-3.051-6.933-4.288-10.944-3.157c-3.925,1.131-6.891,4.437-7.552,8.491l-6.293,37.717
			c-10.773-30.741-29.931-70.187-63.083-101.845c-3.477-3.307-8.725-3.883-12.821-1.472c-4.139,2.453-6.123,7.339-4.864,11.968
			c7.851,29.184-1.408,76.501-11.456,113.493c-2.795-17.899-7.808-33.109-16.469-38.208c-3.285-1.941-7.381-1.963-10.709-0.064
			s-5.376,5.44-5.376,9.259c0,15.68-8,30.144-17.259,46.912c-12.352,22.379-26.368,47.765-26.368,83.989
			c0,2.027,0.299,3.861,0.384,5.824H21.325c-5.888,0-10.667,4.779-10.667,10.667v256c0,5.888,4.779,10.667,10.667,10.667h469.333
			c5.888,0,10.667-4.779,10.667-10.667v-256C501.325,239.429,496.546,234.65,490.658,234.65z M415.992,255.983v64H330.85
			c16.939-14.592,32.939-36.352,42.667-64H415.992z M174.008,155.119c3.776-6.805,7.445-13.461,10.581-20.203
			c1.749,14.272,2.752,32.256,2.539,50.133c-0.064,5.184,3.605,9.643,8.683,10.603c5.163,0.981,10.112-1.856,11.968-6.677
			c1.536-4.096,31.957-84.992,32.981-146.624c39.232,52.245,48.213,114.453,48.32,115.179c0.704,5.227,5.141,9.152,10.411,9.216
			c4.928-0.128,9.813-3.691,10.667-8.896l10.539-63.211c16.448,23.211,40.981,64.64,40.981,105.109
			c0,78.891-56.917,120.235-76.608,120.235H228.28c-9.515-2.624-77.973-23.872-77.973-91.179
			C150.306,198.063,162.36,176.239,174.008,155.119z M330.658,341.317v64H181.325v-64h45.568h58.176H330.658z M95.992,255.983
			h36.373c7.659,30.485,27.456,50.859,46.848,64H95.992V255.983z M31.992,255.983h42.667v64H31.992V255.983z M31.992,341.317h128v64
			h-128V341.317z M74.658,490.65H31.992v-64h42.667V490.65z M245.325,490.65H95.992v-64h149.333V490.65z M415.992,490.65H266.658
			v-64h149.333V490.65z M479.992,490.65h-42.667v-64h42.667V490.65z M479.992,405.317h-128v-64h128V405.317z M479.992,319.983
			h-42.667v-64h42.667V319.983z" />
		</g>
	</g>
	<g></g>
	<g></g>
	<g></g>
	<g></g>
	<g></g>
	<g></g>
	<g></g>
	<g></g>
	<g></g>
	<g></g>
	<g></g>
	<g></g>
	<g></g>
	<g></g>
	<g></g>
</svg>