<?xml version="1.0" encoding="iso-8859-1"?>
<!-- Generator: Adobe Illustrator 19.0.0, SVG Export Plug-In . SVG Version: 6.00 Build 0)  -->
<svg version="1.1" id="Layer_1" xmlns="http://www.w3.org/2000/svg" xmlns:xlink="http://www.w3.org/1999/xlink" x="0px" y="0px" viewBox="0 0 512 512" style="enable-background:new 0 0 512 512;" xml:space="preserve">
	<g>
		<g>
			<g>
				<path fill="currentColor" d="M119.467,102.891c9.412,0,17.067-7.654,17.067-17.067c0-9.412-7.654-17.067-17.067-17.067S102.4,76.412,102.4,85.824
				C102.4,95.236,110.054,102.891,119.467,102.891z" />
				<path fill="currentColor" d="M119.467,374.976H307.2c9.412,0,17.067-7.654,17.067-17.067v-85.333c0-9.412-7.654-17.067-17.067-17.067H119.467
				c-9.412,0-17.067,7.654-17.067,17.067v85.333C102.4,367.322,110.054,374.976,119.467,374.976z M119.467,272.576H307.2
				l0.017,85.333h-187.75V272.576z" />
				<path fill="currentColor" d="M170.667,323.776h-8.533c-4.71,0-8.533,3.823-8.533,8.533c0,4.719,3.823,8.533,8.533,8.533h8.533
				c4.719,0,8.533-3.814,8.533-8.533C179.2,327.599,175.386,323.776,170.667,323.776z" />
				<path fill="currentColor" d="M281.6,306.709h-34.133c-4.71,0-8.533,3.823-8.533,8.533c0,4.719,3.823,8.533,8.533,8.533H281.6
				c4.719,0,8.533-3.814,8.533-8.533C290.133,310.532,286.319,306.709,281.6,306.709z" />
				<path fill="currentColor" d="M192,26.091c7.066,0,12.8-5.743,12.8-12.8s-5.734-12.8-12.8-12.8c-7.057,0-12.8,5.743-12.8,12.8
				S184.943,26.091,192,26.091z" />
				<path fill="currentColor" d="M0,366.443c0,4.719,3.823,8.533,8.533,8.533h59.733c9.412,0,17.067-7.654,17.067-17.067v-85.333
				c0-9.412-7.654-17.067-17.067-17.067H8.533c-4.71,0-8.533,3.823-8.533,8.533c0,4.719,3.823,8.533,8.533,8.533h59.733v85.333
				H8.533C3.823,357.909,0,361.732,0,366.443z" />
				<path fill="currentColor" d="M128.256,34.624c4.719,0,8.533-3.823,8.533-8.533c0-4.71-3.814-8.533-8.533-8.533h-0.085
				c-4.71,0-8.491,3.823-8.491,8.533C119.68,30.801,123.546,34.624,128.256,34.624z" />
				<path fill="currentColor" d="M350.123,51.691c4.719,0,8.533-3.823,8.533-8.533s-3.814-8.533-8.533-8.533h-0.085c-4.71,0-8.491,3.823-8.491,8.533
				S345.412,51.691,350.123,51.691z" />
				<path fill="currentColor" d="M136.841,232.154c1.237,4.548,5.914,7.219,10.479,5.99c4.54-1.237,7.219-5.931,5.982-10.479
				c-21.948-80.469,1.033-105.557,43.776-147.78c3.413,41.523,16.521,68.215,17.161,69.487c1.638,3.294,5.18,5.154,8.841,4.634
				c3.635-0.521,6.528-3.302,7.185-6.921c0.154-0.845,14.677-78.899,48.896-122.411c14.498,31.386,31.044,55.125,45.85,76.365
				c28.467,40.849,49.041,70.366,33.698,126.626c-1.237,4.548,1.442,9.242,5.982,10.479c0.759,0.205,1.51,0.307,2.253,0.307
				c3.755,0,7.194-2.5,8.226-6.298c17.442-63.957-6.212-97.903-36.164-140.877c-16.188-23.228-34.534-49.553-49.528-85.538
				c-1.092-2.62-3.422-4.531-6.221-5.086c-2.79-0.546-5.675,0.324-7.689,2.338c-29.201,29.201-46.66,79.957-55.322,111.991
				c-3.61-13.943-6.912-32.7-6.912-54.758c0-3.447-2.074-6.562-5.265-7.885c-3.2-1.323-6.861-0.589-9.301,1.852
				c-3.601,3.601-7.117,7.074-10.53,10.445C142.165,110.084,111.735,140.105,136.841,232.154z" />
				<path fill="currentColor" d="M330.104,212.408c0.896,0.299,1.809,0.444,2.696,0.444c3.576,0,6.904-2.261,8.098-5.837
				c0.401-1.212,9.634-29.892-9.532-58.633c-2.611-3.925-7.91-4.992-11.827-2.372c-3.925,2.611-4.983,7.91-2.372,11.836
				c14.362,21.547,7.851,42.803,7.526,43.802C323.234,206.11,325.649,210.923,330.104,212.408z" />
				<path fill="currentColor" d="M366.933,460.309H358.4c-4.71,0-8.533,3.823-8.533,8.533c0,4.719,3.823,8.533,8.533,8.533h8.533
				c4.719,0,8.533-3.814,8.533-8.533C375.467,464.132,371.652,460.309,366.933,460.309z" />
				<path fill="currentColor" d="M503.526,392.222l-25.66-0.179c-9.412,0-17.067,7.654-17.067,17.067v85.333c0,9.412,7.654,17.067,17.067,17.067
				c4.719,0,8.533-3.814,8.533-8.533c0-4.71-3.814-8.533-8.533-8.533l-0.051-85.333l25.6,0.179c4.659-0.307,8.55-3.763,8.585-8.474
				C512.034,396.096,508.237,392.256,503.526,392.222z" />
				<path fill="currentColor" d="M503.467,357.909H358.4l-0.009-85.333l145.067,0.179h0.008c4.71,0,8.533-3.814,8.533-8.525
				c0.009-4.71-3.806-8.542-8.525-8.542L358.4,255.509c-9.412,0-17.067,7.654-17.067,17.067v85.333
				c0,9.412,7.654,17.067,17.067,17.067h145.067c4.719,0,8.533-3.814,8.533-8.533C512,361.732,508.186,357.909,503.467,357.909z" />
				<path fill="currentColor" d="M384,323.776c-4.71,0-8.533,3.823-8.533,8.533c0,4.719,3.823,8.533,8.533,8.533h17.067c4.719,0,8.533-3.814,8.533-8.533
				c0-4.71-3.814-8.533-8.533-8.533H384z" />
				<path fill="currentColor" d="M503.467,289.643h-34.133c-4.71,0-8.533,3.823-8.533,8.533c0,4.719,3.823,8.533,8.533,8.533h34.133
				c4.719,0,8.533-3.814,8.533-8.533C512,293.466,508.186,289.643,503.467,289.643z" />
				<path fill="currentColor" d="M426.667,392.043H238.933c-9.412,0-17.067,7.654-17.067,17.067v85.333c0,9.412,7.654,17.067,17.067,17.067h187.733
				c9.412,0,17.067-7.654,17.067-17.067v-85.333C443.733,399.697,436.079,392.043,426.667,392.043z M238.933,494.443v-85.333
				h187.733l0.017,85.333H238.933z" />
				<path fill="currentColor" d="M332.8,426.176h-51.2c-4.71,0-8.533,3.823-8.533,8.533c0,4.719,3.823,8.533,8.533,8.533h51.2
				c4.719,0,8.533-3.814,8.533-8.533C341.333,429.999,337.519,426.176,332.8,426.176z" />
				<path fill="currentColor" d="M187.733,392.043H8.533c-4.71,0-8.533,3.823-8.533,8.533c0,4.719,3.823,8.533,8.533,8.533h179.2v85.333H8.533
				c-4.71,0-8.533,3.823-8.533,8.533c0,4.719,3.823,8.533,8.533,8.533h179.2c9.412,0,17.067-7.654,17.067-17.067v-85.333
				C204.8,399.697,197.146,392.043,187.733,392.043z" />
				<path fill="currentColor" d="M42.667,306.709c4.719,0,8.533-3.814,8.533-8.533c0-4.71-3.814-8.533-8.533-8.533H25.6c-4.71,0-8.533,3.823-8.533,8.533
				c0,4.719,3.823,8.533,8.533,8.533H42.667z" />
				<path fill="currentColor" d="M8.533,460.309H25.6c4.719,0,8.533-3.814,8.533-8.533c0-4.71-3.814-8.533-8.533-8.533H8.533
				c-4.71,0-8.533,3.823-8.533,8.533C0,456.495,3.823,460.309,8.533,460.309z" />
				<path fill="currentColor" d="M136.533,477.376c4.719,0,8.533-3.814,8.533-8.533c0-4.71-3.814-8.533-8.533-8.533H128c-4.71,0-8.533,3.823-8.533,8.533
				c0,4.719,3.823,8.533,8.533,8.533H136.533z" />
				<path fill="currentColor" d="M102.4,443.243c4.719,0,8.533-3.814,8.533-8.533c0-4.71-3.814-8.533-8.533-8.533h-8.533c-4.71,0-8.533,3.823-8.533,8.533
				c0,4.719,3.823,8.533,8.533,8.533H102.4z" />
			</g>
		</g>
	</g>
	<g></g>
	<g></g>
	<g></g>
	<g></g>
	<g></g>
	<g></g>
	<g></g>
	<g></g>
	<g></g>
	<g></g>
	<g></g>
	<g></g>
	<g></g>
	<g></g>
	<g></g>
</svg>