<svg id="Capa_1" enable-background="new 0 0 512 512" height="512" viewBox="0 0 512 512" width="512" xmlns="http://www.w3.org/2000/svg">
    <g>
        <path fill="currentColor" d="m453.092 136.224c4.143 0 7.501-3.358 7.501-7.501v-99.601c0-16.058-13.064-29.122-29.122-29.122h-166.12c-16.058 0-29.122 13.064-29.122 29.122v37.579c-.666-.194-66.023-.303-66.023-.303-1.788.089-3.613.508-5.307 2.2l-111.295 111.295c-1.148 1.254-2.228 2.967-2.197 5.309v291.48c0 19.474 15.844 35.318 35.318 35.318h173.743c4.143 0 7.501-3.358 7.501-7.501s-3.358-7.501-7.501-7.501h-173.743c-11.202 0-20.315-9.113-20.315-20.315v-283.985h24.545c4.143 0 7.501-3.358 7.501-7.501s-3.358-7.501-7.501-7.501h-13.936l85.686-85.686v68.83c0 9.295-7.561 16.856-16.855 16.856h-15.373c-4.143 0-7.501 3.358-7.501 7.501s3.358 7.501 7.501 7.501h15.373c17.566 0 31.858-14.291 31.858-31.858v-79.439l58.522-.303v114.144c0 16.058 13.064 29.122 29.122 29.122h98.383v252.318c0 11.202-9.113 20.315-20.315 20.315h-44.152c-4.143 0-7.501 3.358-7.501 7.501s3.358 7.501 7.501 7.501h44.152c19.474 0 35.318-15.844 35.318-35.318v-252.317h52.735c16.058 0 29.122-13.064 29.122-29.122v-26.18c0-4.143-3.358-7.501-7.501-7.501s-7.501 3.358-7.501 7.501v26.18c0 7.786-6.334 14.12-14.12 14.12h-166.12c-7.785 0-14.12-6.334-14.12-14.12v-166.12c0-7.786 6.334-14.12 14.12-14.12h166.12c7.785 0 14.12 6.334 14.12 14.12v99.601c-.002 4.143 3.356 7.501 7.499 7.501z" />
        <path fill="currentColor" d="m391.806 91.37c4.143 0 7.501-3.358 7.501-7.501s-3.358-7.501-7.501-7.501h-15.013l7.328-35.253c.844-4.056-1.761-8.028-5.817-8.871-4.058-.845-8.029 1.762-8.871 5.818l-7.963 38.306h-16.573l7.328-35.253c.844-4.056-1.761-8.028-5.817-8.871-4.054-.845-8.029 1.762-8.871 5.818l-7.963 38.306h-18.093c-4.143 0-7.501 3.358-7.501 7.501s3.358 7.501 7.501 7.501h14.975l-6.621 31.854h-18.044c-4.143 0-7.501 3.358-7.501 7.501s3.358 7.501 7.501 7.501h14.925l-7.484 36.006c-.844 4.056 1.761 8.028 5.817 8.871.515.107 1.029.158 1.534.158 3.479 0 6.601-2.435 7.336-5.976l8.119-39.059h16.573l-7.484 36.006c-.844 4.056 1.761 8.028 5.817 8.871.515.107 1.029.158 1.534.158 3.479 0 6.601-2.435 7.336-5.976l8.119-39.059h18.182c4.143 0 7.501-3.358 7.501-7.501s-3.358-7.501-7.501-7.501h-15.064l6.621-31.854zm-40.076 31.854h-16.573l6.621-31.854h16.573z" />
        <path fill="currentColor" d="m106.195 267.499h101.512c4.143 0 7.501-3.358 7.501-7.501s-3.358-7.501-7.501-7.501h-101.512c-4.143 0-7.501 3.358-7.501 7.501s3.358 7.501 7.501 7.501z" />
        <path fill="currentColor" d="m106.195 307.944h193.072c4.143 0 7.501-3.358 7.501-7.501s-3.358-7.501-7.501-7.501h-193.072c-4.143 0-7.501 3.358-7.501 7.501s3.358 7.501 7.501 7.501z" />
        <path fill="currentColor" d="m106.195 348.389h193.072c4.143 0 7.501-3.358 7.501-7.501s-3.358-7.501-7.501-7.501h-193.072c-4.143 0-7.501 3.358-7.501 7.501s3.358 7.501 7.501 7.501z" />
        <path fill="currentColor" d="m106.195 388.835h193.072c4.143 0 7.501-3.358 7.501-7.501s-3.358-7.501-7.501-7.501h-193.072c-4.143 0-7.501 3.358-7.501 7.501s3.358 7.501 7.501 7.501z" />
    </g>
</svg>