<?xml version="1.0"?>
<svg viewBox="0 0 96 96" xmlns="http://www.w3.org/2000/svg">
    <title />
    <g>
        <path d="M48,60A12,12,0,1,0,60,72,12.0081,12.0081,0,0,0,48,60Z" fill="currentColor" />
        <path d="M22.6055,46.6289A5.9994,5.9994,0,1,0,31.1133,55.09a24.2258,24.2258,0,0,1,33.7734,0,5.9512,5.9512,0,0,0,4.2539,1.77,6,6,0,0,0,4.2539-10.23C59.7773,32.918,36.2227,32.918,22.6055,46.6289Z" fill="currentColor" />
        <path d="M90.27,29.7773a59.1412,59.1412,0,0,0-84.539,0,5.9994,5.9994,0,1,0,8.5312,8.4375c18.1172-18.3281,49.3594-18.3281,67.4766,0A5.9994,5.9994,0,1,0,90.27,29.7773Z" fill="currentColor" />
    </g>
</svg>